<?xml version="1.0" encoding="UTF-8"?>
<svg id="Camada_2" data-name="Camada 2" xmlns="http://www.w3.org/2000/svg" viewBox="0 0 692.99 178.11" fill="red" >
  <g id="Camada_1-2" data-name="Camada 1">
    <path d="M151.75,133.36l-76.86,44.74L0,133.55V45.23S74.31,0,74.31,0h2.9l74.3,45.23.24,88.13ZM139.68,126.48l.12-72.99c-.05-.99-.56-1.58-1.23-2.23-2.15-2.09-11.62-7.28-14.93-9.31-15.76-9.64-32.12-18.52-48.16-27.68L12.12,51.29l-.24,75.15,57.39,33.93c.54-4.91.37-9.84,2.9-14.3-4.51-2.89-9.92-2.63-14.36-6.17-7.1-5.66-9.22-21.37-8.01-29.73,8,3.74,19.85,10.57,22.45,19.53,1.11,3.83.81,7.91,2.22,11.64l.87-5.21,3.02,5.2c-2.24-15.43,11-26.75,24.24-31.16-1.19,8.33-.09,16.99-4.48,24.52-3.98,6.83-10.57,8.78-17.97,10.18l1.68,15.51,57.85-33.9Z"/>
    <path d="M317.28,51.3c3.35.52,10.03-1.08,12.62.8,4.19,3.04,10.96,25.55,15.94,30.36l14.73-31.16h13.85v50.64c0,.78-.38,2.65-1.39,2.9l-9,.13v-37.22l-19.48,37.22-16.88-36.35v36.36h-10.39v-53.67Z"/>
    <path d="M470.51,51.3h10.39s-.38,52.83-.38,52.83c-1.02,1.41-9.36,1.47-10.95-.38l-22.43-34.27.43,34.67-1.73.82c-1.67-.22-8.49.9-8.88-1.26l.6-52.01,11.13-.23,21.82,33.58v-33.76Z"/>
    <path d="M674.69,51.42l18.3,53.55-11.29-.39-3.33-9.48-18.6-.4-3.97,9.82-11.29.45,17.43-53.55h12.74ZM675.68,85.06l-7.36-21.65c-1.11,6.64-5.58,14.87-6.5,21.21-.38,2.63,1.08.44,1.31.44h12.55Z"/>
    <path d="M218.47,51.42l18.3,53.55-11.27-.41-3.35-9.47-19.93-.42-2.78,10.26-11.15.04,16.86-52.81,13.31-.73ZM219.46,85.06l-7.36-21.65-6.49,21.65h13.85Z"/>
    <polygon points="422.9 51.3 422.9 60.82 400.39 60.82 400.39 73.81 419.43 73.81 419.43 82.46 400.39 82.46 400.39 95.45 423.76 95.45 423.76 104.97 390.43 104.97 389.13 103.67 389.13 52.6 390.43 51.3 422.9 51.3"/>
    <path d="M601.28,86.81l10.33,3c-15.1,33.98-59.74,8.72-45.89-24.25,7.96-18.96,37.95-21,45.2-.99,1.28,3.53-6.41,2.55-8.4,4.8-12.65-22.78-36.82-.42-25.12,19.17,6.24,10.44,19.92,10.09,23.88-1.74Z"/>
    <path d="M531.11,60.82h-14.72v44.15c-3.4-2.39-7.99.82-10.39-1.3v-42.85h-12.99v-9.52h36.79l1.09,1.26c-.99,2.75-1.12,5.61.21,8.26Z"/>
    <path d="M258.42,51.3v44.15h20.78c-.3,1.82.96,8.91-1.26,9.3-9.6-1.74-19.39-.1-29-.14-1.01,0-1.12-.06-1.77-.94v-52.37h11.25Z"/>
    <path d="M301.7,51.3v53.67c-3.59-.5-8.5,1.3-11.25-1.3v-52.37h11.25Z"/>
    <path d="M552.75,51.3v53.67c-3.21-1.37-7.16-1.37-10.39,0v-53.67h10.39Z"/>
    <path d="M634.12,51.3v53.67c-3.21-1.37-7.16-1.37-10.39,0v-53.67h10.39Z"/>
    <path d="M429.82,160.37v-31.16h12.55c.66,0,5.3,1.87,6.24,2.41,9.85,5.61,10.61,19.33,1.55,26.15-.64.48-4.07,2.6-4.33,2.6h-16.02ZM435.88,155.18c18.9,2.46,20-22.75,0-19.91v19.91Z"/>
    <path d="M493.02,160.37l-6.84-.08-1.72-6.32-12.13-.43-1.77,6.46-6.11.37,10.51-31.03,7.24.74,10.82,30.29ZM482.62,148.25l-3.89-12.11-4.77,12.11h8.65Z"/>
    <path d="M418.57,129.21v6.06s-9.52,0-9.52,0c-.33.93.86,1.89.86,2.16v22.94h-6.06v-25.1h-8.66s0-6.06,0-6.06h23.37Z"/>
    <polygon points="377.02 129.21 377.02 155.18 390.87 155.18 390.87 160.37 371.82 160.37 371.82 129.21 377.02 129.21"/>
    <polygon points="557.94 36.59 550.84 45.92 541.5 46.1 546.83 36.72 557.94 36.59"/>
    <path d="M78.36,74.24c1.31-9.8,13.66-22.03,23.37-23.81,2.9,16.4-5.02,34.89-23.37,36.36.37-3.97-.51-8.7,0-12.55Z"/>
    <path d="M73.16,87.66c-8.18-2.71-16.64-6.38-20.33-14.73-.71-1.62-3.05-8.67-3.05-9.94v-12.55c9.51.17,23.37,15.64,23.37,24.67v12.55Z"/>
    <path d="M79.23,117.09c-4.6-18.39,5.64-30.85,22.07-37.21,1.97.1.65,11.47.34,13.31-2.28,13.29-10.02,19.8-22.41,23.9Z"/>
    <path d="M74.02,117.08c-19.5-3.42-25.6-19.02-25.09-37.22,10.4,4.12,22.15,10.96,24.02,23.15.72,4.69-.55,9.51,1.07,14.07Z"/>
    <path d="M76.61,64.28c-6.38-7.09-8.93-19.49-5.6-28.55,3.76-10.24,10.12-2.79,10.84,4.71.87,9.05-1.79,15.77-5.24,23.84Z"/>
  </g>
</svg>
